# xmcd CD Database Entry
#
# Track frame offsets:
# 150
# 20611
# 39350
# 67066
# 91706
# 114840
# 134334
# 150626
# 170411
# 191032
# 212330
# 235509
# 254957
# 275479
# 294649
# 315257
# 334010
#
# Disc length: 4751 seconds
#
# Revision: 16
# Processed by: cddbd v1.4PL0 Copyright (c) Steve Scherf et al.
# Submitted via: tcd 2.0b
#
DISCID=eb128d11
DTITLE=Mix 1
DYEAR=1900
DGENRE=
TTITLE0=1 in a Million/ Aaliyah
TTITLE1=Got it Bad/ Usher
TTITLE2=Slowly/ Tank
TTITLE3=Sweet Love/ 112
TTITLE4=Dangerously in Love/ Destiny's Child
TTITLE5=Lovin You/ Jon B
TTITLE6=I gotta Be/ Jagged Edge
TTITLE7=How Deep is your Love/ Ginuwine
TTITLE8=Promise/ Jagged Edge
TTITLE9=Wonderful/ Brian McKnight
TTITLE10=1 Kiss/ Next
TTITLE11=
TTITLE12=Emotional/ Carl Thomas
TTITLE13=Cupid/ 112
TTITLE14=Soon  as I get Home/ Faith
TTITLE15=Roll Wit Me
TTITLE16=Gonna Love Ya Anyway/ Various
EXTD=
EXTT0=
EXTT1=
EXTT2=
EXTT3=
EXTT4=
EXTT5=
EXTT6=
EXTT7=
EXTT8=
EXTT9=
EXTT10=
EXTT11=
EXTT12=
EXTT13=
EXTT14=
EXTT15=
EXTT16=
PLAYORDER=
